{"title":"Hose.On.Hoes.XXX.DVDRip.XVID-DFA","uid":7755379,"size":727844864,"categoryP":"porn","categoryS":"movies","magnet":"?xt=urn:btih:f8473af387e7ec030dc678e2083354bbdccfa53f&amp;dn=Hose.On.Hoes.XXX.DVDRip.XVID-DFA&amp;tr=udp%3A%2F%2Ftracker.openbittorrent.com%3A80&amp;tr=udp%3A%2F%2Fopen.demonii.com%3A1337&amp;tr=udp%3A%2F%2Ftracker.coppersurfer.tk%3A6969&amp;tr=udp%3A%2F%2Fexodus.desync.com%3A6969","seeders":0,"leechers":0,"uploader":"R0thschild","files":2,"time":1351038545,"description":"Gallery: \n &lt;a href=&quot;\nhttp://imagedomino.com/?g=490854&quot; rel=&quot;nofollow&quot; target=&quot;_NEW&quot;&gt;\nhttp://imagedomino.com/?g=490854&lt;/a&gt;\n\nVideo\nFormat                           : MPEG-4 Visual\nFormat profile                   : Streaming Video@L1\nFormat settings, BVOP            : Yes\nFormat settings, QPel            : No\nFormat settings, GMC             : No warppoints\nFormat settings, Matrix          : Default\nMuxing mode                      : Packed bitstream\nCodec ID                         : XVID\nCodec ID/Hint                    : XviD\nBit rate                         : 1 821 Kbps\nWidth                            : 512 pixels\nHeight                           : 288 pixels\nDisplay aspect ratio             : 16/9\nFrame rate                       : 29.970 fps\nResolution                       : 24 bits\nColorimetry                      : 4:2:0\nScan type                        : Progressive\nBits/(Pixel*Frame)               : 0.412\nStream size                      : 644 MiB (93%)\nWriting library                  : XviD 1.1.2 (UTC 2006-11-01)\n\nAudio\nFormat                           : MPEG Audio\nFormat version                   : Version 1\nFormat profile                   : Layer 3\nCodec ID                         : 55\nCodec ID/Hint                    : MP3\nDuration                         : 49mn 28s\nBit rate mode                    : Variable\nBit rate                         : 127 Kbps\nNominal bit rate                 : 128 Kbps\nChannel(s)                       : 2 channels\nSampling rate                    : 48.0 KHz\nResolution                       : 16 bits\nStream size                      : 44.7 MiB (6%)\nAlignment                        : Aligned on interleaves\nInterleave, duration             : 24 ms (0.72 video frame)\nInterleave, preload duration     : 466 ms\nWriting library                  : LAME3.90.\nEncoding settings                : ABR","torrent":{"xt":"urn:btih:f8473af387e7ec030dc678e2083354bbdccfa53f","amp;dn":"Hose.On.Hoes.XXX.DVDRip.XVID-DFA","amp;tr":["udp%3A%2F%2Ftracker.openbittorrent.com%3A80","udp%3A%2F%2Fopen.demonii.com%3A1337","udp%3A%2F%2Ftracker.coppersurfer.tk%3A6969","udp%3A%2F%2Fexodus.desync.com%3A6969"],"infoHash":"f8473af387e7ec030dc678e2083354bbdccfa53f","infoHashBuffer":{"type":"Buffer","data":[248,71,58,243,135,231,236,3,13,198,120,226,8,51,84,187,220,207,165,63]},"announce":[],"urlList":[]}}